<?xml version="1.0" encoding="utf-8"?>
<!-- Generator: Adobe Illustrator 18.1.1, SVG Export Plug-In . SVG Version: 6.00 Build 0)  -->
<svg version="1.1" id="Layer_1" xmlns="http://www.w3.org/2000/svg" xmlns:xlink="http://www.w3.org/1999/xlink" x="0px" y="0px"
	 viewBox="0 0 39.4 48" enable-background="new 0 0 39.4 48" xml:space="preserve">
<g>
	<g>
		<path fill="#FFFFFF" d="M19.7,29.4c8.1,0,14.7-6.6,14.7-14.7C34.4,6.6,27.8,0,19.7,0C11.6,0,5,6.6,5,14.7
			C5,22.8,11.6,29.4,19.7,29.4z M19.7,2.4C26.5,2.4,32,7.9,32,14.7c0,6.8-5.5,12.4-12.4,12.4c-6.8,0-12.4-5.5-12.4-12.4
			C7.3,7.9,12.9,2.4,19.7,2.4z"/>
		<path fill="#FFFFFF" d="M39.4,15.4c-0.1-0.7-0.8-0.7-0.8-0.7h-0.4c-0.7,0-0.9,0.9-0.9,1.1c0,0,0,0.1,0,0.1l0,0
			C36.5,24.9,29,32,19.7,32C10.5,32,3,25.1,2.1,16.2c0,0,0-0.1,0-0.1c-0.2-1.1-0.7-1.3-0.9-1.3H0.7c-0.5,0-0.7,0.4-0.7,0.7
			c0.4,10.1,8.3,18.3,18.4,18.9V39l-8.9,8.9l0,0l20.4,0l0,0L21,39v-4.6C31,33.7,39,25.5,39.4,15.4z"/>
	</g>
	<g>
		<path fill="#FFFFFF" d="M20.9,5.6c-0.4-0.1-0.8-0.1-1.2-0.1c-5.3,0-9.6,4.3-9.6,9.6c0,1.4,0.3,2.8,0.9,4L20.9,5.6z"/>
		<path fill="#FFFFFF" d="M24.5,6.8L13.2,22.2c0.7,0.6,1.4,1.1,2.3,1.6L26.7,8.6C26,7.9,25.3,7.3,24.5,6.8z"/>
		<path fill="#FFFFFF" d="M20.4,24.7c5-0.4,8.9-4.5,8.9-9.6c0-0.8-0.1-1.5-0.3-2.2L20.4,24.7z"/>
	</g>
</g>
</svg>
