<?xml version="1.0" encoding="utf-8"?>
<!-- Generator: Adobe Illustrator 18.1.1, SVG Export Plug-In . SVG Version: 6.00 Build 0)  -->
<svg version="1.1" id="Layer_1" xmlns="http://www.w3.org/2000/svg" xmlns:xlink="http://www.w3.org/1999/xlink" x="0px" y="0px"
	 viewBox="0 0 47.7 39.4" enable-background="new 0 0 47.7 39.4" xml:space="preserve">
<g>
	<g>
		<g>
			<path fill="#FFFFFF" d="M23.2,21.1H12.3C9.9,21.1,8,23,8,25.5v3.1c0,2.4,1.9,4.4,4.4,4.4h10.9c2.4,0,4.4-1.9,4.4-4.4v-3.1
				C27.6,23,25.6,21.1,23.2,21.1z M25.1,28.6c0,1.1-0.8,1.9-1.9,1.9H12.3c-1.1,0-1.9-0.8-1.9-1.9v-3.1c0-1.1,0.8-1.9,1.9-1.9h10.9
				c1.1,0,1.9,0.8,1.9,1.9V28.6z M47.5,13L45.3,1c-0.2-0.6-0.6-1-1.1-1H3.6C2.9,0,2.4,0.5,2.4,1l-1.9,9.9C0.2,11.7,0,12.5,0,13.3
				c0,2.4,1.3,4.7,3.4,5.8v16.7c0,1.9,1.6,3.6,3.6,3.6h22.7c0.6,0,1.3-0.5,1.3-1.3c0,0,0,0,0-0.2c0,0,0,0,0-0.2V23.2h6.5v14.6
				c0,0,0,0,0,0.2c0,0,0,0,0,0.2c0,0.6,0.5,1.3,1.3,1.3H41c1.9,0,3.6-1.6,3.6-3.6v-17c1.8-1.1,2.9-3.1,3.1-5.2
				C47.7,13.5,47.7,13.1,47.5,13z M42,35.7c0,0.6-0.5,1.1-1.1,1.1h-1.1V22.1c0-0.6-0.5-1.3-1.3-1.3h-8.9c-0.6,0-1.3,0.5-1.3,1.3
				v14.8H7c-0.6,0-1.1-0.5-1.1-1.1V20c0.3,0,0.6,0.2,1,0.2c2.3,0,4.4-1.1,5.7-2.9c1.3,1.8,3.2,2.9,5.7,2.9s4.4-1.1,5.7-2.9
				c1.3,1.8,3.2,2.9,5.7,2.9s4.4-1.1,5.7-2.9c1.3,1.8,3.2,2.9,5.7,2.9c0.5,0,1,0,1.3-0.2v15.7H42z M45.1,13.1c0,2.4-1.9,4.4-4.4,4.4
				c-2.4,0-4.4-1.9-4.4-4.4c0-0.6-0.5-1.3-1.3-1.3c-0.8,0-1.3,0.5-1.3,1.3c0,2.4-1.9,4.4-4.4,4.4S25,15.6,25,13.1
				c0-0.6-0.5-1.3-1.3-1.3c-0.8,0-1.3,0.5-1.3,1.3c0,2.4-1.9,4.4-4.4,4.4c-2.4,0-4.4-1.9-4.4-4.4c0-0.6-0.5-1.3-1.3-1.3
				c-0.8,0-1,0.6-1,1.3c0,2.4-1.9,4.4-4.4,4.4s-4.4-1.9-4.4-4.4c0-0.5,0.2-1.1,0.3-1.6v-0.2l1.8-8.9h38.6L45.3,13
				C45.1,13.1,45.1,13.1,45.1,13.1z"/>
		</g>
	</g>
</g>
</svg>
